<svg width="67" height="66" viewBox="0 0 67 66" fill="none" xmlns="http://www.w3.org/2000/svg">
<path d="M33.8667 -2.09808e-05C33.3469 -2.09808e-05 32.8544 -2.08281e-05 32.3345 0.0274792C23.731 0.432412 7.46637 -2.19345e-05 1.03355 0.0274799C1.03352 7.5 0.602583 24.9548 1.03352 34.5125C1.44642 43.4211 1.03353 59.5 1.03353 65.9725C8.4613 66 25.1503 66 33.812 66C34.3319 66 34.8244 66 35.3442 65.9725C43.6889 65.5797 59.701 66 66.6452 65.9725C66.6452 57 67.0879 41.3055 66.6452 31.4875C66.3221 24.5153 66.6452 6 66.6452 -2.00272e-05C58.2086 0.027478 44.4341 -2.09808e-05 33.8667 -2.09808e-05ZM27.0265 35.3925L27.1086 35.4475L30.857 37.3175L30.9391 37.345L32.6081 38.1975C33.3742 38.61 34.3045 38.61 35.0706 38.1975L36.6302 37.4L36.7123 37.3725L40.8985 35.2825L40.9259 35.255L49.8456 30.7725L52.9921 29.205V44C52.9921 45.5125 51.7609 46.75 50.256 46.75H17.4228C15.9179 46.75 14.6867 45.5125 14.6867 44V29.205L17.9153 30.8275L27.0265 35.3925ZM51.4872 23.815L42.4855 28.325L42.4581 28.3525L33.8394 32.67L25.549 28.5175L25.5216 28.49L16.1915 23.815C15.2613 23.3475 14.6867 22.385 14.6867 21.34V19.25H52.9921V21.34C52.9921 22.4125 52.4175 23.3475 51.4872 23.815Z" fill="black"/>
</svg>
