<svg width="67" height="66" viewBox="0 0 67 66" fill="none" xmlns="http://www.w3.org/2000/svg">
<path d="M33.5 7.15256e-07C23.5124 7.15256e-07 2.49998 1.52588e-05 0.499985 0C0.49999 3.12837 0.499985 25.1511 0.499985 33.5167C0.499985 41.2996 0.499989 58.6431 0.499992 66C7.49999 66 17.9047 66 25.503 66C25.349 65.5475 25.25 65.0224 25.25 64.3717V58.6431C23.9107 58.6431 21.6667 58.6431 21.103 58.6431C18.8452 58.6431 16.8377 57.6571 15.8642 55.8249C14.7835 53.7888 14.5965 50.6745 11.918 48.7696C11.1232 48.1356 11.7282 47.4122 12.644 47.51C14.3352 47.9959 15.7377 49.1746 17.0577 50.9231C18.3722 52.6743 18.991 53.0709 21.4467 53.0709C22.6375 53.0709 24.4195 53.0011 26.097 52.733C26.999 50.4064 28.5582 48.2641 30.464 47.253C19.475 46.105 14.2307 40.5524 14.2307 33.014C14.2307 29.7684 15.592 26.629 17.9047 23.984C17.1457 21.3585 16.1915 16.0042 18.1962 13.9653C23.1407 13.9653 26.13 17.222 26.8477 18.1018C29.3117 17.2444 32.0177 16.7584 34.8612 16.7584C37.7102 16.7584 40.4272 17.2444 42.8967 18.1074C43.6062 17.2332 46.5982 13.9653 51.5537 13.9653C53.5667 16.007 52.6015 21.3837 51.8342 24.0036C54.1332 26.643 55.4862 29.774 55.4862 33.014C55.4862 40.5469 50.2502 46.0967 39.2777 47.2502C42.2972 48.8506 44.5 53.3475 44.5 56.7354V64.3717C44.5 64.6621 44.533 65.7514 44.5 66C50.5 66 60.5 66 66.5 66C66.5 58.3638 66.5 41.0284 66.5 33.5167C66.5 23.8388 66.5 5.62837 66.5 0C66.5 0 42.1955 7.15256e-07 33.5 7.15256e-07Z" fill="black"/>
</svg>
