<svg width="66" height="66" viewBox="0 0 66 66" fill="none" xmlns="http://www.w3.org/2000/svg">
<path d="M33.0001 -1.90735e-05C24.0567 -1.90735e-05 7.00002 -2.0504e-05 8.19777e-05 -2.09808e-05C4.77703e-05 7 6.57652e-05 23.7192 6.57652e-05 33C6.57652e-05 42.7208 7.42641e-05 60 6.81494e-05 66C7.5 66 24.4967 66 33.0001 66C42.7209 66 58.5 66 66.0001 66C66.0001 58 66.0001 41.5034 66.0001 33C66.0001 23.9725 66.0001 8 66.0001 -1.81198e-05C57.5 -1.88351e-05 42.1968 -1.90735e-05 33.0001 -1.90735e-05ZM20.6141 14.8582C22.9296 14.8582 24.4723 16.401 24.4723 18.458C24.4723 20.515 22.9296 22.0577 20.3583 22.0577C18.0428 22.0605 16.5001 20.515 16.5001 18.458C16.5001 16.401 18.0428 14.8582 20.6141 14.8582ZM24.7501 46.75H16.5001V24.75H24.7501V46.75ZM52.2501 46.75H44.4841V34.727C44.4841 31.4022 42.4133 30.635 41.6378 30.635C40.8623 30.635 38.2718 31.1465 38.2718 34.727C38.2718 35.2385 38.2718 46.75 38.2718 46.75H30.2501V24.75H38.2746V27.819C39.3086 26.0287 41.3793 24.75 45.2623 24.75C49.1453 24.75 52.2501 27.819 52.2501 34.727V46.75Z" fill="black"/>
</svg>
